<svg width="101" height="99" viewBox="0 0 101 99" fill="none" xmlns="http://www.w3.org/2000/svg">
<path fill-rule="evenodd" clip-rule="evenodd" d="M45.4405 0.197005L44.0589 0.394698L43.072 0.592154L42.085 0.789324L41.0979 0.986812L40.3086 1.18427L39.5193 1.38152L38.9274 1.5789L38.335 1.77639L37.7429 1.97364L37.1508 2.1711L36.5586 2.36848L35.9665 2.56596L35.3744 2.76321L34.9794 2.96067L34.5848 3.15784L33.9927 3.3553L33.598 3.55279L33.2031 3.75004L32.8084 3.94742L32.4138 4.14488L32.0186 4.34213L31.6242 4.53962L31.2295 4.73699L30.8346 4.93425L30.4399 5.13171L30.2424 5.3292L29.8476 5.52637L29.4531 5.72382L29.0582 5.92129L28.861 6.11846L28.4661 6.31594L28.2689 6.5134L27.8739 6.71065L27.677 6.90811L27.2818 7.10528L27.0846 7.30276L26.6897 7.50023L26.4925 7.69768L26.2951 7.89486L25.9003 8.09234L25.7029 8.2898L25.3082 8.48698L25.1108 8.68443L24.9133 8.88192L24.7161 9.07915L24.3212 9.27632L24.124 9.47401L23.9266 9.67126L23.7291 9.86875L23.5318 10.0662L23.137 10.2634L22.9397 10.4608L22.7423 10.6583L22.5448 10.8555L22.3476 11.053L22.1502 11.2504L21.9527 11.4474L21.7554 11.6454L21.558 11.8425L21.3606 12.0398L21.1633 12.2372L20.9659 12.4346L20.7682 12.6319L20.5712 12.8294L20.3737 13.0268L20.1763 13.224L19.9791 13.4215L19.7816 13.6189L19.5842 13.8164L19.3869 14.211L19.1895 14.4083L18.9921 14.6058L18.7948 14.8031L18.5977 15.0004L18.5977 15.3953L18.9921 15.5925L19.5842 15.79L19.9791 15.9875L20.3737 16.1847L20.9659 16.3821L21.3606 16.3821L21.558 16.1847L21.7554 15.9875L21.9527 15.79L22.1502 15.5925L22.3476 15.3953L22.5448 15.1979L22.7423 14.8031L22.9397 14.6058L23.137 14.4083L23.3344 14.211L23.5318 14.0136L23.7291 13.8164L23.9266 13.6189L24.3212 13.4215L24.5187 13.224L24.7161 13.0268L24.9133 12.8294L25.1108 12.6319L25.3082 12.4346L25.5054 12.2372L25.7029 12.0398L26.0976 11.8425L26.2951 11.6454L26.4925 11.4474L26.6897 11.2504L27.0846 11.053L27.2818 10.8555L27.4793 10.6583L27.8739 10.4608L28.0714 10.2634L28.2689 10.0662L28.6635 9.86875L28.861 9.67126L29.2557 9.47401L29.4531 9.27632L29.8476 9.07915L30.0453 8.88192L30.4399 8.68443L30.6374 8.48698L31.032 8.2898L31.4267 8.09234L31.8216 7.89486L32.0186 7.69769L32.4138 7.50023L32.8084 7.30277L33.2031 7.10529L33.598 6.90811L33.9927 6.71065L34.3874 6.5134L34.7823 6.31594L35.1769 6.11846L35.769 5.92129L36.1638 5.72382L36.7558 5.52637L37.1508 5.3292L37.7429 5.13171L38.335 4.93425L38.9274 4.73699L39.5193 4.53962L40.1114 4.34213L40.9008 4.14488L41.6903 3.94742L42.4799 3.75004L43.4667 3.55279L44.4535 3.3553L45.8352 3.15785L47.8091 2.96068L53.9275 2.96068L55.9013 3.15785L57.2829 3.3553L58.2699 3.55279L59.2567 3.75004L60.0462 3.94743L60.8356 4.14488L61.6252 4.34213L62.2173 4.53962L62.8094 4.737L63.5988 4.93425L63.9937 5.13171L64.5858 5.3292L65.1779 5.52637L65.5726 5.72383L65.9678 5.92129L66.5597 6.11846L66.9543 6.31595L67.349 6.5134L67.7439 6.71065L68.1388 6.90811L68.5333 7.10529L68.9282 7.30277L69.3228 7.50023L69.7175 7.69769L70.1124 7.89486L70.3099 8.09235L70.7045 8.2898L71.0992 8.48698L71.2967 8.68444L71.6913 8.88193L72.086 9.07915L72.2834 9.27632L72.6782 9.47402L72.8756 9.67127L73.2703 9.86875L73.4677 10.0662L73.6652 10.2634L74.0598 10.4608L74.2573 10.6583L74.4545 10.8555L74.8492 11.053L75.0467 11.2504L75.2441 11.4474L75.4415 11.6454L75.8362 11.8425L76.0336 12.0398L76.2309 12.2372L76.4284 12.4347L76.6258 12.6319L76.823 12.8294L77.2181 13.0268L77.4152 13.224L77.6126 13.4215L77.81 13.6189L78.0073 13.8164L78.2048 14.0136L78.4021 14.2111L78.5994 14.4083L78.7969 14.6058L78.9943 14.8031L79.1913 15.0004L79.3892 15.1979L79.5864 15.3953L79.7837 15.5925L79.9811 15.9875L80.1786 16.1847L80.3758 16.1847L80.9679 15.9875L81.3628 15.79L81.955 15.5925L82.3496 15.3953L82.9418 15.1979L82.9418 14.8031L82.7443 14.4083L82.5471 14.2111L82.3496 14.0136L82.1521 13.8164L81.955 13.6189L81.7575 13.4215L81.5602 13.224L81.3628 13.0268L81.1654 12.8294L80.9679 12.6319L80.7707 12.4347L80.5733 12.2372L80.3758 12.0398L80.1786 11.8425L79.9811 11.6454L79.7837 11.4474L79.5864 11.2504L79.3892 11.053L79.1913 10.8555L78.9943 10.6583L78.7969 10.4608L78.5994 10.2634L78.4021 10.0662L78.2048 9.86875L77.81 9.67127L77.6126 9.47402L77.4152 9.27632L77.2181 9.07915L76.823 8.88193L76.6258 8.68444L76.4284 8.48698L76.2309 8.2898L75.8362 8.09235L75.6388 7.89486L75.4415 7.69769L75.0467 7.50023L74.8492 7.30277L74.4545 7.10529L74.2573 6.90811L73.8624 6.71065L73.6652 6.5134L73.2703 6.31595L73.073 6.11846L72.6782 5.92129L72.2834 5.72383L72.086 5.52637L71.6913 5.3292L71.2967 5.13171L70.9017 4.93426L70.5071 4.737L70.1124 4.53962L69.9149 4.34213L69.5203 4.14488L69.1253 3.94743L68.5333 3.75004L68.1388 3.55279L67.7439 3.3553L67.349 3.15785L66.7568 2.96068L66.3622 2.76321L65.7698 2.56596L65.3754 2.36848L64.7833 2.1711L64.1912 1.97364L63.5988 1.77639L62.8094 1.5789L62.2173 1.38152L61.4277 1.18427L60.6384 0.986813L59.8488 0.789326L58.862 0.592155L57.6777 0.3947L56.296 0.197006L54.3222 -1.59503e-05L47.4141 -1.65543e-05L45.4405 0.197005Z" fill="url(#paint0_linear_78_18)"/>
<path fill-rule="evenodd" clip-rule="evenodd" d="M36.5586 12.6322L36.1638 12.8296L35.9665 13.0271L35.769 13.2243L35.769 15.0007L35.9665 15.3956L36.1638 15.5928L36.3612 15.7902L36.5586 15.9877L37.9401 15.9877L38.1376 15.7902L38.335 15.5928L38.5323 15.3956L38.5376 14.3808L39.1244 14.606L39.914 14.8034L40.3086 15.0007L40.7035 15.1981L41.098 15.3956L41.4929 15.5928L41.8878 15.7902L42.085 15.9877L42.4799 16.1849L42.6771 16.3823L43.0721 16.5798L43.269 16.7771L43.4667 16.9745L43.6642 17.1719L43.8614 17.3692L44.0589 17.5666L44.2563 17.7641L44.4535 17.9613L44.651 18.1588L44.8485 18.356L45.0456 18.5534L45.2431 18.7509L45.4406 18.9483L45.638 19.1456L45.8352 19.5404L46.0327 19.7377L46.2299 19.9352L46.4274 20.3298L46.6248 20.527L46.822 20.7247L47.0195 21.1194L47.217 21.3168L47.4141 21.7115L47.6116 22.1062L47.8091 22.3036L48.0063 22.6981L48.2037 23.0932L48.4012 23.4879L48.5984 23.8826L48.7959 24.2775L48.9933 24.6722L49.1905 25.067L49.1905 25.6589L48.9933 26.0539L48.7959 26.646L48.5984 27.0407L48.4012 27.6328L48.2037 28.0274L48.0063 28.6196L47.8091 29.2117L47.6116 29.8038L47.4141 30.3959L47.217 30.988L47.0195 31.5802L46.822 32.1723L46.6248 32.9619L46.4274 33.7515L46.2299 34.5409L46.0327 35.3304L46.0327 36.12L46.2299 36.5146L46.4274 36.7121L46.6248 37.1068L46.822 37.3042L47.0195 37.5015L47.217 37.8964L47.4141 38.0936L47.6116 38.291L47.8091 38.4885L48.0063 38.4885L48.2037 38.0936L48.4012 37.1068L48.5984 35.9225L48.7959 35.133L48.9933 34.1464L49.1905 33.3566L49.388 32.5673L49.5855 31.7774L49.7826 30.988L49.9801 30.3959L50.1778 29.8038L50.3748 29.2117L50.3748 28.6196L50.7695 28.6196L50.7695 29.2117L50.9669 29.8038L51.1644 30.3959L51.3616 31.1855L51.5591 31.7774L51.7565 32.5673L51.9537 33.3566L52.1512 34.3436L52.3484 35.133L52.5459 36.12L52.7433 37.1068L52.9407 38.291L53.3355 38.291L53.5328 38.0936L53.7301 37.8964L53.9275 37.5015L54.125 37.3042L54.3222 37.1068L54.5195 36.7121L54.7171 36.5146L54.9144 36.3175L55.1118 35.9225L55.1118 35.3304L54.9144 34.5409L54.7171 33.7515L54.5195 32.9619L54.3222 32.3698L54.125 31.5802L53.9275 30.988L53.7301 30.3959L53.5328 29.8038L53.3355 29.2117L53.138 28.6196L52.9407 28.0274L52.7433 27.6328L52.5459 27.0407L52.3484 26.646L52.1512 26.2511L51.9537 25.6589L51.9537 25.067L52.1512 24.6722L52.3484 24.2775L52.5459 23.8826L52.7433 23.4879L52.9407 23.0932L53.138 22.6981L53.3355 22.3036L53.5328 22.1062L53.7301 21.7115L53.9275 21.3168L54.125 21.1194L54.3222 20.7247L54.5195 20.527L54.7171 20.3298L54.9144 19.9352L55.1118 19.7377L55.3092 19.343L55.5065 19.1456L55.7039 18.9483L55.9014 18.7509L56.0986 18.5534L56.2961 18.356L56.4935 18.1588L56.6905 17.9613L56.8884 17.7641L57.0856 17.5666L57.2829 17.3692L57.4803 17.1719L57.6778 16.9745L57.875 16.7771L58.0725 16.5798L58.4671 16.3823L58.6646 16.1849L59.0595 15.9877L59.2567 15.7902L59.6513 15.5928L60.0463 15.3956L60.441 15.1981L60.8356 15.0007L61.2306 14.8034L62.0198 14.606L62.612 14.4085L62.612 15.3956L62.8094 15.5928L63.0069 15.7902L63.2041 15.9877L64.3883 15.9877L64.7833 15.7902L64.9805 15.5928L65.1779 15.3956L65.3754 15.0007L65.3754 13.4217L65.1779 13.0271L64.9805 12.8296L64.5858 12.6322L63.7962 12.4349L63.2041 12.4349L62.0198 12.6322L61.4277 12.8296L60.8356 13.0271L60.2435 13.2243L59.8488 13.4217L59.4542 13.6192L59.0595 13.8167L58.862 14.0138L58.4671 14.2113L58.0725 14.4085L57.875 14.606L57.4803 14.8034L57.2829 15.0007L57.0856 15.1981L56.6905 15.3956L56.4935 15.5928L56.2961 15.7902L56.0986 15.9877L55.9014 16.1849L55.7039 16.3823L55.3092 16.5798L55.1118 16.7771L54.9144 16.9745L54.7171 17.1719L54.5195 17.3692L54.3222 17.7641L54.125 17.9613L53.9275 18.1588L53.7301 18.356L53.5328 18.5534L53.3355 18.7509L53.138 19.1456L52.9407 19.343L52.7433 19.5404L52.5459 19.7377L52.3484 20.1326L52.1512 20.3298L51.9537 20.7247L51.7565 20.9219L51.5591 21.3168L51.3616 21.5141L51.1644 21.9089L50.9669 22.3036L50.7695 22.6981L50.3748 22.6981L50.1778 22.3036L49.9801 21.9089L49.7826 21.5141L49.5855 21.3168L49.388 20.9219L49.1905 20.7247L48.9933 20.3298L48.7959 20.1326L48.5984 19.9352L48.4012 19.5404L48.2037 19.343L48.0063 19.1456L47.8091 18.7509L47.6116 18.5534L47.4141 18.356L47.217 18.1588L47.0195 17.9613L46.822 17.7641L46.6248 17.5666L46.4274 17.1719L46.2299 16.9745L45.8352 16.7771L45.638 16.5798L45.4406 16.3823L45.2431 16.1849L45.0456 15.9877L44.8485 15.7902L44.651 15.5928L44.4535 15.3956L44.0589 15.1981L43.8614 15.0007L43.6642 14.8034L43.269 14.606L43.0721 14.4085L42.6771 14.2113L42.2825 14.0138L42.085 13.8167L41.6904 13.6192L41.2957 13.4217L40.7035 13.2243L40.3086 13.0271L39.7165 12.8296L39.1244 12.6322L37.9401 12.4349L37.348 12.4349L36.5586 12.6322Z" fill="#27567D"/>
<path fill-rule="evenodd" clip-rule="evenodd" d="M0.43897 13.2242L0.43897 13.8166L0.636221 15.198L0.833601 16.1848L1.03109 17.1718L1.22834 17.9612L1.4258 18.7508L1.62318 19.3429L1.82043 20.1325L2.01791 20.7246L2.21537 21.3167L2.41254 21.9088L2.61 22.501L2.80725 23.0931L3.00466 23.4878L3.20212 24.0799L3.39958 24.4746L3.59683 25.0669L3.79432 25.4616L3.9917 25.8563L4.18895 26.251L4.38641 26.6459L4.58389 27.0406L4.78106 27.4352L4.97852 27.8302L5.17622 28.2248L5.37316 28.6195L5.57064 29.0144L5.7681 29.2116L5.96535 29.6063L6.16273 30.0012L6.36022 30.1987L6.55747 30.5933L6.75493 30.7908L6.95231 31.1854L7.14956 31.3829L7.34725 31.7773L7.5445 31.975L7.74167 32.1722L7.93913 32.5672L8.13662 32.7644L8.33384 32.9618L8.53125 33.3565L8.72871 33.5539L8.92596 33.7514L9.12344 33.9484L9.32083 34.1463L9.51784 34.5408L9.71554 34.7382L9.91302 34.9356L10.1102 35.1329L10.3077 35.3303L10.5051 35.5278L10.7024 35.725L10.8998 35.9225L11.0972 36.1199L11.2945 36.3174L11.4919 36.5145L11.6893 36.712L11.8866 36.9093L12.0841 37.1067L12.2815 37.3041L12.4787 37.5014L12.6762 37.6989L13.0709 37.8963L13.2683 38.0935L13.4657 38.2909L13.663 38.4884L13.8605 38.6857L14.0578 38.8831L14.4525 39.0805L14.65 39.2778L14.8472 39.4753L15.0447 39.6726L15.4393 39.8699L15.6368 40.0673L15.8342 40.2648L16.2289 40.462L16.4266 40.6595L16.6236 40.8567L17.0185 41.0541L17.2157 41.2516L17.6106 41.449L17.8078 41.6463L18.2028 41.8438L18.4 42.0409L18.7949 42.2384L19.1896 42.4359L19.387 42.633L19.7817 42.8305L20.1763 43.0278L20.5713 43.2252L20.7682 43.4226L21.1634 43.6201L21.5581 43.8173L21.9527 44.0148L22.3477 44.2122L22.7423 44.4094L23.3344 44.6069L23.7291 44.8044L24.124 45.0016L24.7162 45.1988L25.3083 45.3967L25.9004 45.5937L26.4925 45.7911L27.0847 45.9886L27.874 46.1858L28.6635 46.3833L29.4532 46.5807L30.0453 46.778L29.8476 46.9754L29.6504 47.1729L29.4532 47.3699L29.2557 47.5678L29.0583 47.765L28.861 47.9623L28.6635 48.1596L28.4662 48.3571L28.2689 48.5543L28.0714 48.9492L27.874 49.1465L27.677 49.3439L27.4793 49.7388L27.2819 49.936L27.0847 50.3307L26.8872 50.7256L26.6898 50.9229L26.4925 51.3177L26.2951 51.7124L26.0976 52.3046L25.9004 52.6992L25.7029 53.2914L25.5055 53.6862L25.3083 54.2781L25.1108 55.0677L24.9133 55.8573L24.7162 57.0416L24.7162 61.7786L24.9133 62.9628L25.1108 63.7524L25.3083 64.3446L25.5055 65.1339L25.7029 65.726L25.9004 66.1209L26.0976 66.7131L26.2951 67.1077L26.4925 67.6996L26.6897 68.0945L26.8872 68.4894L27.0847 68.8841L27.2819 69.2788L27.4793 69.4762L27.677 69.8707L27.874 70.2658L28.0714 70.4631L28.2689 70.8579L28.4662 71.0552L29.0583 71.0552L29.4532 70.8579L29.8476 70.6604L30.2425 70.4631L30.8347 70.2658L31.2295 70.0686L31.6242 69.8707L32.0186 69.6737L32.4138 69.4762L32.8085 69.2788L33.0059 69.0815L33.4006 68.8841L33.7953 68.6867L34.1901 68.4894L34.5849 68.2919L34.7823 68.0945L35.177 67.8975L35.5717 67.6996L35.7691 67.5024L36.1638 67.3052L36.3613 67.1077L36.7559 66.9103L36.9534 66.7131L37.1508 66.5156L37.5455 66.3181L37.743 66.1209L38.1376 65.9234L38.335 65.726L38.5323 65.5286L38.9274 65.3313L39.1244 65.1339L39.3219 64.9367L39.5194 64.7392L39.7165 64.5417L39.914 64.3446L40.1115 64.1471L40.3086 63.9496L40.5061 63.7524L40.7036 63.555L40.9008 63.3575L41.098 63.1603L41.2957 62.9628L41.4929 62.7653L41.6904 62.5682L41.8879 62.3707L42.085 61.9761L42.2825 61.7786L42.48 61.3839L42.6771 61.1865L42.8746 60.7918L43.0721 60.3969L43.269 60.0022L43.4667 59.6076L43.6642 59.0154L43.8614 58.6203L44.0589 58.0284L44.2563 57.239L44.4535 56.4492L44.651 55.2652L44.8485 52.8967L44.8485 52.3046L44.651 49.7388L44.4535 48.7518L44.2563 47.9623L44.0589 47.1729L43.8614 46.5807L43.6642 45.9886L43.4667 45.5937L43.269 45.0016L43.0721 44.6069L42.8746 44.2122L42.6771 43.8173L42.48 43.4226L42.2825 43.2252L42.085 42.8305L41.8879 42.4359L41.6904 42.2384L41.4929 41.8438L41.2957 41.6463L41.098 41.2516L40.9008 41.0541L40.7036 40.8567L40.5061 40.462L40.3086 40.2648L40.1115 40.0674L39.914 39.8699L39.7165 39.6726L39.5194 39.2778L39.3219 39.0805L39.1244 38.8831L38.9274 38.6857L38.7298 38.4884L38.5323 38.2909L38.335 38.0935L38.1376 37.8963L37.9401 37.6989L37.743 37.5014L37.348 37.3041L37.1508 37.1067L36.9534 36.9093L36.7559 36.712L36.5586 36.5145L36.3613 36.3174L35.9666 36.1199L35.7691 35.9225L35.5717 35.725L35.177 35.5278L34.9795 35.3303L34.7823 35.1329L34.3874 34.9356L34.1902 34.7382L33.7953 34.5408L33.598 34.3435L33.2032 34.1463L33.0059 33.9484L32.611 33.7514L32.4138 33.5539L32.0186 33.3565L31.6243 33.1593L31.2295 32.9618L30.8347 32.7644L30.6374 32.5672L30.2425 32.3697L29.8476 32.1722L29.4532 31.975L29.0583 31.7773L28.6635 31.5801L28.2689 31.3829L27.874 31.1854L27.2819 30.988L26.8872 30.7908L26.4925 30.5933L25.9004 30.3958L25.5055 30.1987L24.9134 30.0012L24.3212 29.8037L23.7291 29.6063L23.137 29.4091L22.3477 29.2116L21.5581 29.0144L20.3738 28.8169L18.7949 28.6195L16.2289 28.6195L14.8472 28.8169L14.0578 29.0144L13.4657 29.2116L12.8736 29.4091L12.4787 29.6063L12.0841 29.8037L11.8866 30.0012L11.6893 30.1987L11.6893 30.5933L11.8866 30.988L12.0841 31.1854L12.2815 31.5801L12.4787 31.7773L12.6762 32.1722L12.8736 32.3697L13.0709 32.5672L13.663 32.5672L14.0578 32.3697L14.65 32.1722L15.2422 31.975L16.0315 31.7773L20.5713 31.7773L21.7555 31.975L22.5448 32.1722L23.3344 32.3697L23.9266 32.5672L24.5187 32.7644L24.9134 32.9618L25.5055 33.1593L25.9004 33.3565L26.4925 33.5539L26.8872 33.7514L27.2819 33.9484L27.677 34.1463L28.0714 34.3435L28.4662 34.5408L28.6635 34.7382L29.0583 34.9356L29.4532 35.1329L29.8476 35.3303L30.0453 35.5278L30.4399 35.725L30.6374 35.9225L31.0321 36.1199L31.4268 36.3174L31.6243 36.5145L32.0186 36.712L32.2163 36.9093L32.4138 37.1067L32.8085 37.3041L33.0059 37.5014L33.4006 37.6989L33.598 37.8963L33.7953 38.0935L33.9927 38.2909L34.3874 38.4884L34.5849 38.6857L34.7823 38.8831L34.9795 39.0805L35.177 39.2778L35.3744 39.4753L35.7691 39.6726L35.9666 39.8699L36.1638 40.0673L36.3613 40.2648L36.5586 40.462L36.7559 40.6595L36.9534 40.8567L37.1508 41.0541L37.348 41.2516L37.5455 41.6463L37.743 41.8438L37.9401 42.0409L38.1376 42.2384L38.335 42.4359L38.5323 42.8305L38.7298 43.0278L38.9274 43.2252L39.1244 43.6201L39.3219 43.8173L39.5194 44.2122L39.7165 44.4094L39.914 44.8044L40.1115 45.1988L40.3086 45.3967L40.5061 45.7911L40.7036 46.1858L40.9008 46.778L41.098 47.1729L41.2957 47.765L41.4929 48.3571L41.6904 48.9492L41.8879 49.936L42.085 51.515L42.085 53.2914L41.8879 54.8705L41.6904 55.8573L41.4929 56.4492L41.2957 57.0416L41.098 57.6337L40.9008 58.0284L40.7036 58.6203L40.5061 59.0154L40.3086 59.2126L40.1115 59.6076L39.914 60.0022L39.7165 60.1997L39.5194 60.5943L39.3219 60.7918L39.1244 60.9892L38.9274 61.1865L38.7298 61.5811L38.5323 61.7786L38.335 61.9761L38.1376 62.1732L37.9401 62.3707L37.743 62.5682L37.5455 62.7653L37.348 62.9628L36.9534 63.1603L36.7559 63.3575L36.5586 63.555L36.3613 63.7524L35.9666 63.9496L35.7691 64.1471L35.5717 64.3446L35.177 64.5417L34.9795 64.7392L34.5849 64.9367L34.1901 65.1339L33.9927 65.3313L33.598 65.5286L33.4006 65.726L33.0059 65.9234L32.611 66.1209L32.2163 66.3181L31.8216 66.5156L31.4268 66.7131L31.0321 66.9103L30.6374 67.1077L30.0453 67.3052L29.4532 67.5024L29.4532 67.1077L29.2557 66.5156L29.0583 66.1209L28.861 65.726L28.6635 65.1339L28.4662 64.7392L28.2689 64.1471L28.0714 63.3575L27.874 62.7653L27.677 61.7786L27.4793 60.7918L27.4793 57.239L27.677 56.252L27.874 55.6599L28.0714 55.0677L28.2689 54.4756L28.4662 54.081L28.6635 53.6862L28.861 53.2914L29.0583 52.8967L29.2557 52.502L29.4532 52.1071L29.6504 51.9099L29.8476 51.515L30.0453 51.3177L30.2425 51.1203L30.4399 50.7256L30.6374 50.5282L30.8347 50.3307L31.0321 50.1335L31.2295 49.936L31.4268 49.7388L31.6243 49.5414L31.8216 49.3439L32.0186 49.1465L32.2163 48.9492L32.4138 48.7518L32.611 48.5543L33.0059 48.3571L33.2032 48.1596L33.4006 47.9623L33.7953 47.765L33.9927 47.5678L34.3874 47.3699L34.7823 47.1729L35.177 46.9754L35.5717 46.778L35.9666 46.5807L36.3613 46.3833L36.7559 46.1858L37.1508 45.9886L37.348 45.7911L37.5455 45.5937L37.743 45.1988L37.9401 44.8044L37.9401 43.6201L36.7559 43.6201L35.7691 43.8173L33.598 44.0148L33.0059 44.0148L30.8347 43.8173L29.8476 43.6201L28.861 43.4226L28.0714 43.2252L27.4793 43.0278L26.8872 42.8305L26.2951 42.633L25.9004 42.4359L25.3083 42.2384L24.9133 42.0409L24.5187 41.8438L24.124 41.6463L23.7291 41.449L23.3344 41.2516L22.9398 41.0541L22.5448 40.8567L22.3477 40.6595L21.9527 40.462L21.5581 40.2648L21.3606 40.0673L20.9659 39.8699L20.7682 39.6726L20.3738 39.4753L20.1763 39.2778L19.7817 39.0805L19.5842 38.8831L19.1896 38.6857L18.9921 38.4884L18.7949 38.2909L18.4 38.0935L18.2028 37.8963L18.0053 37.6989L17.8078 37.5014L17.4132 37.3041L17.2157 37.1067L17.0185 36.9093L16.8211 36.712L16.6236 36.5145L16.4266 36.3174L16.0315 36.1199L15.8342 35.9225L15.6368 35.725L15.4393 35.5278L15.2422 35.3303L15.0447 35.1329L14.8472 34.9356L14.65 34.7382L14.4525 34.5408L14.2551 34.3435L14.0578 34.1463L13.8605 33.9484L13.663 33.7514L13.4657 33.5539L13.2683 33.1593L13.0709 32.9618L12.8736 32.7644L12.6762 32.5672L12.4787 32.1722L12.2815 31.975L12.0841 31.7773L11.8866 31.3829L11.6893 31.1854L11.4919 30.7908L11.2945 30.5933L11.0972 30.1987L10.8998 29.8037L10.7024 29.6063L10.5051 29.2116L10.3077 28.8169L10.1102 28.4223L9.91302 28.0273L9.71554 27.6327L9.51784 27.238L9.32083 26.8431L9.12344 26.4484L8.92596 25.8563L8.72871 25.4616L8.53125 24.8695L8.33384 24.2774L8.13662 23.6852L7.93913 23.0931L7.74167 22.501L7.5445 21.7114L7.34725 20.9218L7.14956 20.1325L6.95231 19.1455L6.75493 18.1587L6.55747 16.777L6.36074 16.1652L8.53125 16.3822L9.91302 16.5797L10.8998 16.777L11.8866 16.9744L12.6762 17.1718L13.4657 17.3691L14.2551 17.5665L14.8472 17.764L15.4393 17.9612L16.0315 18.1587L16.6236 18.3559L17.2157 18.5533L17.8078 18.7508L18.2028 18.9482L18.7949 19.1455L19.387 19.3429L19.7817 19.5403L20.1763 19.7376L20.5713 19.9351L21.1634 20.1325L21.5581 20.3297L21.9527 20.5269L22.3477 20.7246L22.7423 20.9218L23.137 21.1193L23.5319 21.3168L23.9266 21.514L24.3212 21.7114L24.7162 21.9088L25.1108 22.1061L25.3083 22.3036L25.7029 22.501L26.0976 22.698L26.4925 22.8959L26.6898 23.0931L27.0847 23.2903L27.4793 23.4878L27.677 23.6852L28.0714 23.8825L28.2689 24.0799L28.6635 24.2774L29.0583 24.4746L29.2557 24.6721L29.6504 24.8695L29.8476 25.0669L30.2425 25.2642L30.4399 25.4616L30.8347 25.6588L31.0321 25.8563L31.2295 26.0538L31.6243 26.251L31.8216 26.4484L32.0187 26.6459L32.4138 26.8431L32.611 27.0406L32.8085 27.238L33.2032 27.4352L33.4006 27.6327L33.598 27.8302L33.9927 28.0273L34.1902 28.2248L34.3874 28.4223L34.5849 28.6195L34.7823 28.8169L35.177 29.0144L35.3744 29.2116L35.5717 29.4091L35.7691 29.6063L35.9666 29.8037L36.1638 30.0012L36.5586 30.1987L36.7559 30.3958L36.9534 30.5933L37.1508 30.7908L37.348 30.988L37.5455 31.1854L37.743 31.3829L37.9401 31.5801L38.1376 31.7773L38.335 31.975L38.5323 32.1722L38.7298 32.3697L38.9274 32.5672L39.1244 32.7644L39.3219 32.9618L39.5194 33.1593L39.7165 33.3565L39.914 33.5539L40.1115 33.7514L40.3086 33.9484L40.5061 34.1463L40.7036 34.5408L40.9008 34.7382L41.098 34.9356L41.2957 35.1329L41.4929 35.3303L41.6904 35.5278L41.8879 35.9225L42.085 36.1199L42.2825 36.3174L42.48 36.5145L42.6771 36.712L42.8746 37.1067L43.0721 37.3041L43.269 37.5014L43.4667 37.8963L43.6642 38.0935L43.8614 38.2909L44.0589 38.6857L44.2563 38.8831L44.4535 39.0805L44.651 39.4753L44.8485 39.6726L45.0457 40.0674L45.2431 40.2648L45.4406 40.462L45.6381 40.8567L45.8352 41.2516L46.0327 41.449L46.2299 41.8438L46.4274 42.0409L46.6248 42.4359L46.8221 42.8305L47.0195 43.0278L47.217 43.4226L47.4142 43.8173L47.6116 44.0148L47.8091 44.4094L48.0063 44.8044L48.2037 45.1988L48.4012 45.5937L48.5984 45.9886L48.7959 46.3833L48.9933 46.778L49.1906 47.1729L49.388 47.5678L49.5855 48.1596L49.7827 48.5543L49.9801 48.9492L50.1778 49.5414L50.3748 49.7388L50.5723 49.7388L50.7695 49.5414L50.967 48.9492L51.1644 48.5543L51.3616 48.1596L51.5591 47.5678L51.7565 47.1729L51.9537 46.778L52.1512 46.3833L52.3484 45.9886L52.5459 45.5937L52.7433 45.1988L52.9408 44.8044L53.138 44.4094L53.3355 44.0148L53.5329 43.8173L53.7301 43.4226L53.9276 43.0278L54.1251 42.8305L54.3222 42.4359L54.5195 42.0409L54.7172 41.8438L54.9144 41.449L55.1118 41.2516L55.3093 40.8567L55.5065 40.462L55.704 40.2648L55.9014 40.0674L56.0986 39.6726L56.2961 39.4753L56.4936 39.0805L56.6905 38.8831L56.8884 38.6857L57.0857 38.2909L57.2829 38.0935L57.4803 37.8963L57.6778 37.5014L57.875 37.3041L58.0725 37.1067L58.2699 36.712L58.4671 36.5145L58.6646 36.3174L58.8621 36.1199L59.0595 35.9225L59.2567 35.5278L59.4542 35.3303L59.6514 35.1329L59.8488 34.9356L60.0463 34.7382L60.2435 34.5408L60.441 34.1463L60.6384 33.9484L60.8356 33.7514L61.0331 33.5539L61.2306 33.3565L61.4278 33.1593L61.6252 32.9618L61.8227 32.7644L62.0199 32.5672L62.2173 32.3697L62.4148 32.1722L62.6121 31.975L62.8094 31.7773L63.0069 31.5801L63.2042 31.3829L63.4016 31.1854L63.5988 30.988L63.7963 30.7908L63.9937 30.5933L64.1912 30.3958L64.5858 30.1987L64.7833 30.0012L64.9806 29.8038L65.178 29.6063L65.3754 29.4091L65.5727 29.2116L65.7698 29.0144L66.1648 28.8169L66.3622 28.6195L66.5597 28.4223L66.7569 28.2248L66.9544 28.0273L67.3491 27.8302L67.5465 27.6327L67.7439 27.4352L68.1389 27.238L68.336 27.0406L68.5333 26.8431L68.9282 26.6459L69.1254 26.4484L69.3229 26.251L69.7176 26.0538L69.915 25.8563L70.3099 25.6588L70.5072 25.4617L70.7045 25.2642L71.0993 25.0669L71.2967 24.8695L71.6914 24.6721L71.8889 24.4746L72.2835 24.2774L72.6782 24.0799L72.8756 23.8825L73.2703 23.6853L73.4678 23.4878L73.8624 23.2903L74.2573 23.0931L74.4545 22.8959L74.8492 22.698L75.2441 22.501L75.6388 22.3036L76.0337 22.1061L76.2309 21.9088L76.6259 21.7114L77.0203 21.514L77.4152 21.3168L77.8101 21.1193L78.2048 20.9218L78.5994 20.7246L78.9944 20.5269L79.3892 20.3297L79.7837 20.1325L80.3758 19.9351L80.7707 19.7376L81.1654 19.5404L81.5603 19.3429L82.1522 19.1455L82.7443 18.9482L83.1392 18.7508L83.7314 18.5533L84.3235 18.3559L84.9156 18.1587L85.5077 17.9612L86.0996 17.764L86.692 17.5665L87.4814 17.3691L88.2707 17.1718L89.0605 16.9744L90.0473 16.777L91.2316 16.5797L92.4158 16.3823L94.6149 16.1902L94.3897 16.777L94.1922 18.1587L93.9947 19.3429L93.7975 20.1325L93.6001 21.1193L93.4026 21.7114L93.2054 22.501L93.008 23.0931L92.8107 23.6853L92.6133 24.2774L92.4158 24.8695L92.2184 25.4617L92.0211 25.8563L91.8237 26.4484L91.6262 26.8431L91.429 27.238L91.2316 27.6327L91.0341 28.0273L90.8368 28.4223L90.6397 28.8169L90.4418 29.2116L90.2447 29.6063L90.0473 30.0012L89.8499 30.1987L89.6526 30.5933L89.4552 30.7908L89.2577 31.1854L89.0605 31.3829L88.863 31.7773L88.6656 31.975L88.4686 32.1722L88.2707 32.5672L88.0735 32.7644L87.8762 32.9618L87.6788 33.3565L87.4814 33.5539L87.2841 33.7514L87.0867 33.9484L86.8892 34.1463L86.692 34.3435L86.4945 34.5408L86.2971 34.7382L86.0996 34.9356L85.9024 35.1329L85.705 35.3303L85.5077 35.5278L85.3103 35.725L85.1129 35.9225L84.9156 36.1199L84.5207 36.3174L84.3235 36.5145L84.126 36.712L83.9286 36.9093L83.7314 37.1067L83.5339 37.3041L83.1392 37.5014L82.9418 37.6989L82.7443 37.8963L82.5471 38.0935L82.1522 38.291L81.955 38.4884L81.7575 38.6857L81.3629 38.8831L81.1654 39.0805L80.968 39.2778L80.5733 39.4753L80.3758 39.6726L79.9811 39.8699L79.5865 40.0674L79.3892 40.2648L78.9944 40.462L78.5994 40.6595L78.4022 40.8567L78.0073 41.0541L77.6126 41.2516L77.2182 41.449L76.823 41.6463L76.4284 41.8438L76.0337 42.0409L75.6388 42.2384L75.0467 42.4359L74.652 42.633L74.0599 42.8305L73.4678 43.0278L72.8756 43.2252L72.086 43.4226L71.2967 43.6201L70.1124 43.8173L67.9409 44.0148L67.3491 44.0148L65.178 43.8173L64.1912 43.6201L63.0069 43.6201L63.0069 44.8044L63.2042 45.1988L63.4016 45.3967L63.5988 45.7911L63.7963 45.9886L64.1912 46.1858L64.5858 46.3833L64.9806 46.5807L65.5727 46.778L65.9678 46.9754L66.1648 47.1729L66.5597 47.3699L66.9544 47.5678L67.1518 47.765L67.5465 47.9623L67.7439 48.1596L67.9409 48.3571L68.336 48.5543L68.5333 48.7518L68.7308 48.9492L68.9282 49.1465L69.1254 49.3439L69.3229 49.5414L69.5203 49.7388L69.7176 49.936L69.915 50.1335L70.1124 50.3307L70.3099 50.5282L70.5072 50.7256L70.7045 51.1203L70.9018 51.3177L71.0993 51.515L71.2967 51.9099L71.4939 52.1071L71.6914 52.502L71.8889 52.8967L72.086 53.2914L72.2835 53.6863L72.4809 54.081L72.6782 54.4756L72.8756 55.0677L73.0731 55.6599L73.2703 56.252L73.4678 57.239L73.4678 60.7918L73.2703 61.9761L73.0731 62.7653L72.8756 63.555L72.6782 64.1471L72.4809 64.7392L72.2835 65.1339L72.086 65.7261L71.8889 66.1209L71.6914 66.5156L71.4939 67.1077L71.4886 67.5304L70.9018 67.3052L70.3099 67.1077L69.915 66.9103L69.5203 66.7131L69.1254 66.5156L68.7308 66.3181L68.336 66.1209L67.9409 65.9234L67.5465 65.7261L67.3491 65.5286L66.9544 65.3313L66.7569 65.1339L66.3622 64.9367L65.9678 64.7392L65.7698 64.5417L65.5727 64.3446L65.1779 64.1471L64.9806 63.9496L64.5858 63.7524L64.3884 63.555L64.1912 63.3575L63.9937 63.1603L63.5988 62.9628L63.4016 62.7653L63.2042 62.5682L63.0069 62.3707L62.8094 62.1732L62.612 61.9761L62.4148 61.7786L62.2173 61.5811L62.0199 61.1865L61.8227 60.9892L61.6252 60.7918L61.4278 60.5943L61.2306 60.1997L61.0331 60.0022L60.8356 59.6076L60.6384 59.2126L60.441 58.8182L60.2435 58.4233L60.0463 58.0284L59.8488 57.6337L59.6514 57.0416L59.4542 56.4492L59.2567 55.8573L59.0595 54.8705L58.8621 53.2914L58.8621 51.515L59.0595 49.936L59.2567 48.9492L59.4542 48.3571L59.6514 47.765L59.8488 47.1729L60.0463 46.778L60.2435 46.1858L60.441 45.7911L60.6384 45.3967L60.8356 45.1988L61.0331 44.8044L61.2306 44.4094L61.4278 44.2122L61.6252 43.8173L61.8227 43.6201L62.0199 43.2252L62.2173 43.0278L62.4148 42.8305L62.6121 42.4359L62.8094 42.2384L63.0069 42.0409L63.2042 41.8438L63.4016 41.449L63.5988 41.2516L63.7963 41.0541L63.9937 40.8567L64.1912 40.6595L64.3884 40.462L64.5858 40.2648L64.7833 40.0674L64.9806 39.8699L65.178 39.6726L65.3754 39.4753L65.7698 39.2778L65.9678 39.0805L66.1648 38.8831L66.3622 38.6857L66.5597 38.4884L66.9544 38.2909L67.1518 38.0935L67.3491 37.8963L67.5465 37.6989L67.9409 37.5014L68.1389 37.3041L68.5333 37.1067L68.7308 36.9093L68.9282 36.712L69.3229 36.5145L69.5203 36.3174L69.915 36.1199L70.3099 35.9225L70.5072 35.725L70.9018 35.5278L71.0993 35.3303L71.4939 35.1329L71.8889 34.9356L72.2835 34.7382L72.4809 34.5408L72.8756 34.3435L73.2703 34.1463L73.6653 33.9484L74.0599 33.7514L74.4545 33.5539L75.0467 33.3565L75.4416 33.1593L76.0337 32.9618L76.6259 32.7644L77.0203 32.5672L77.6126 32.3697L78.4022 32.1722L79.1913 31.975L80.3758 31.7773L84.9156 31.7773L85.705 31.975L86.2971 32.1722L86.8892 32.3697L87.2841 32.5672L87.8762 32.5672L88.0735 32.3697L88.2707 32.1722L88.4686 31.7773L88.6656 31.5802L88.863 31.1854L89.0605 30.988L89.2577 30.5933L89.2577 30.1987L89.0605 30.0012L88.863 29.8038L88.4686 29.6063L88.0735 29.4091L87.4814 29.2116L86.8892 29.0144L86.0996 28.8169L84.7182 28.6195L82.1522 28.6195L80.5733 28.8169L79.3892 29.0144L78.5994 29.2116L77.8101 29.4091L77.2182 29.6063L76.6259 29.8038L76.0337 30.0012L75.4416 30.1987L75.0467 30.3958L74.4545 30.5933L74.0599 30.7908L73.6653 30.988L73.0731 31.1854L72.6782 31.3829L72.2835 31.5801L71.8889 31.7773L71.4939 31.975L71.0993 32.1722L70.7045 32.3697L70.3099 32.5672L70.1124 32.7644L69.7176 32.9618L69.3229 33.1593L68.9282 33.3565L68.7308 33.5539L68.336 33.7514L67.9409 33.9484L67.7439 34.1463L67.3491 34.3435L67.1518 34.5408L66.7569 34.7382L66.5597 34.9356L66.1648 35.1329L65.9678 35.3303L65.7698 35.5278L65.3754 35.725L65.178 35.9225L64.9806 36.1199L64.7833 36.3174L64.3884 36.5145L64.1912 36.712L63.9937 36.9093L63.7963 37.1067L63.5988 37.3041L63.2042 37.5014L63.0069 37.6989L62.8094 37.8963L62.6121 38.0935L62.4148 38.2909L62.2173 38.4884L62.0199 38.6857L61.8227 38.8831L61.6252 39.0805L61.4278 39.4753L61.2306 39.6726L61.0331 39.8699L60.8356 40.0674L60.6384 40.2648L60.441 40.462L60.2435 40.8567L60.0463 41.0541L59.8488 41.2516L59.6514 41.6463L59.4542 41.8438L59.2567 42.2384L59.0595 42.4359L58.8621 42.8305L58.6646 43.2252L58.4671 43.4226L58.2699 43.8173L58.0725 44.2122L57.875 44.6069L57.6778 45.0016L57.4803 45.5937L57.2829 45.9886L57.0857 46.5807L56.8884 47.1729L56.6905 47.9623L56.4936 48.7518L56.2961 49.936L56.2961 55.2652L56.4936 56.4492L56.6905 57.239L56.8884 57.8311L57.0857 58.6203L57.2829 59.0154L57.4803 59.6076L57.6778 60.0022L57.875 60.3969L58.0725 60.7918L58.2699 61.1865L58.4671 61.3839L58.6646 61.7786L58.8621 61.9761L59.0595 62.3707L59.2567 62.5682L59.4542 62.7653L59.6514 62.9628L59.8488 63.1603L60.0463 63.3575L60.2435 63.555L60.441 63.7524L60.6384 63.9496L60.8356 64.1471L61.0331 64.3446L61.2306 64.5417L61.4278 64.7392L61.6252 64.9367L61.8227 65.1339L62.2173 65.3313L62.4148 65.5286L62.612 65.7261L62.8094 65.9234L63.2042 66.1209L63.4016 66.3181L63.7963 66.5156L63.9937 66.7131L64.1912 66.9103L64.5858 67.1077L64.7833 67.3052L65.1779 67.5024L65.3754 67.6996L65.7698 67.8975L66.1648 68.0945L66.5597 68.292L66.7569 68.4894L67.1518 68.6867L67.5465 68.8841L67.9409 69.0815L68.1389 69.2788L68.5333 69.4762L68.9282 69.6737L69.3229 69.8707L69.7176 70.0686L70.1124 70.2658L70.7045 70.4631L71.0993 70.6604L71.4939 70.8579L71.8889 71.0552L72.4809 71.0552L72.6782 70.8579L72.8756 70.4631L73.0731 70.2658L73.2703 69.8707L73.4678 69.4762L73.6653 69.2788L73.8624 68.8841L74.0599 68.4894L74.2573 68.0945L74.4545 67.6996L74.652 67.1077L74.8492 66.7131L75.0467 66.1209L75.2441 65.7261L75.4416 65.1339L75.6388 64.5417L75.8363 63.7524L76.0337 62.9628L76.2309 61.7786L76.2309 57.0416L76.0337 55.8573L75.8363 55.0677L75.6388 54.2781L75.4416 53.6863L75.2441 53.0941L75.0467 52.6992L74.8492 52.3046L74.652 51.7124L74.4545 51.3177L74.2573 50.9229L74.0599 50.7256L73.8624 50.3307L73.6653 49.936L73.4678 49.7388L73.2703 49.3439L73.0731 49.1465L72.8756 48.9492L72.6782 48.5543L72.4809 48.3571L72.2835 48.1596L72.086 47.9623L71.8889 47.765L71.6914 47.5678L71.4939 47.3699L71.2967 47.1729L71.0993 46.9754L70.9018 46.778L71.4939 46.5807L72.2835 46.3833L73.0731 46.1859L73.8624 45.9886L74.4545 45.7911L75.0467 45.5937L75.6388 45.3967L76.2309 45.1988L76.823 45.0016L77.2182 44.8044L77.6126 44.6069L78.2048 44.4094L78.5994 44.2122L78.9944 44.0148L79.3892 43.8173L79.7837 43.6201L80.1786 43.4226L80.5733 43.2252L80.7707 43.0278L81.1654 42.8305L81.5603 42.6331L81.7575 42.4359L82.1522 42.2384L82.5471 42.0409L82.7443 41.8438L83.1392 41.6463L83.3365 41.449L83.7314 41.2516L83.9286 41.0541L84.3235 40.8567L84.5207 40.6595L84.7181 40.462L85.1129 40.2648L85.3103 40.0674L85.5077 39.8699L85.9024 39.6726L86.0996 39.4753L86.2971 39.2778L86.4945 39.0805L86.8892 38.8831L87.0867 38.6857L87.2841 38.4884L87.4814 38.291L87.6788 38.0935L88.0735 37.8963L88.2707 37.6989L88.4686 37.5014L88.6656 37.3041L88.863 37.1067L89.0605 36.9093L89.2577 36.712L89.4552 36.5145L89.6526 36.3174L89.8499 36.1199L90.0473 35.9225L90.2447 35.725L90.4418 35.5278L90.6397 35.3303L90.8368 35.1329L91.0341 34.9356L91.2316 34.7382L91.429 34.5408L91.6262 34.1463L91.8237 33.9484L92.0211 33.7514L92.2184 33.5539L92.4158 33.3565L92.6133 32.9618L92.8107 32.7644L93.008 32.5672L93.2054 32.3697L93.4026 31.975L93.6001 31.7773L93.7975 31.3829L93.9947 31.1854L94.1922 30.7908L94.3897 30.5933L94.5868 30.1987L94.7843 30.0012L94.9817 29.6063L95.179 29.2116L95.3765 28.8169L95.5739 28.6195L95.7711 28.2248L95.9686 27.8302L96.1661 27.4352L96.3632 27.0406L96.5607 26.6459L96.7582 26.251L96.9553 25.8563L97.1528 25.4617L97.3501 25.0669L97.5475 24.4746L97.7449 24.0799L97.9424 23.4878L98.1396 23.0931L98.3371 22.501L98.5346 21.9088L98.7317 21.3168L98.9292 20.7246L99.1267 20.1325L99.3238 19.5404L99.5211 18.7508L99.719 17.9612L99.916 17.1718L100.113 16.1849L100.311 15.1981L100.508 13.8166L100.508 13.2242L98.9292 13.027L94.7843 13.027L92.8107 13.2242L91.429 13.4217L90.2447 13.6191L89.2577 13.8166L88.2707 14.0137L87.4814 14.2112L86.8892 14.4084L86.0996 14.6059L85.5077 14.8033L84.7182 15.0006L84.3235 15.1981L83.7314 15.3955L83.1392 15.5927L82.5471 15.7901L82.1522 15.9876L81.5603 16.1849L80.968 16.3823L80.5733 16.5797L80.1786 16.777L79.5865 16.9744L79.1913 17.1718L78.7969 17.3691L78.4022 17.5665L78.0073 17.764L77.6126 17.9612L77.0203 18.1587L76.823 18.3559L76.4284 18.5533L76.0337 18.7508L75.6388 18.9482L75.2441 19.1455L74.8492 19.3429L74.4545 19.5404L74.0599 19.7376L73.8624 19.9351L73.4678 20.1325L73.0731 20.3297L72.8756 20.5269L72.4809 20.7246L72.086 20.9218L71.8889 21.1193L71.4939 21.3168L71.0993 21.514L70.9018 21.7114L70.5072 21.9088L70.3099 22.1061L69.915 22.3036L69.7176 22.501L69.3229 22.698L69.1254 22.8959L68.7308 23.0931L68.5333 23.2903L68.336 23.4878L67.9409 23.6853L67.7439 23.8825L67.5465 24.0799L67.1518 24.2774L66.9544 24.4746L66.7569 24.6721L66.5597 24.8695L66.1648 25.0669L65.9678 25.2642L65.7698 25.4617L65.5727 25.6588L65.3754 25.8563L64.9806 26.0538L64.7833 26.251L64.5858 26.4484L64.3884 26.6459L64.1912 26.8431L63.9937 27.0406L63.7963 27.238L63.5988 27.4352L63.2042 27.6327L63.0069 27.8302L62.8094 28.0273L62.6121 28.2248L62.4148 28.4223L62.2173 28.6195L62.0199 28.8169L61.8227 29.0144L61.6252 29.2116L61.4278 29.4091L61.2306 29.6063L61.0331 29.8038L60.8356 30.0012L60.6384 30.1987L60.441 30.3958L60.2435 30.5933L60.0463 30.7908L59.8488 30.988L59.6514 31.1854L59.4542 31.3829L59.2567 31.5801L59.0595 31.975L58.8621 32.1722L58.6646 32.3697L58.4671 32.5672L58.2699 32.7644L58.0725 32.9618L57.875 33.1593L57.6778 33.3565L57.4803 33.7514L57.2829 33.9484L57.0857 34.1463L56.8884 34.3435L56.6905 34.5408L56.4936 34.9356L56.2961 35.1329L56.0986 35.3303L55.9014 35.5278L55.704 35.9225L55.5065 36.1199L55.3093 36.3174L55.1118 36.712L54.9144 36.9093L54.7172 37.1067L54.5195 37.5014L54.3222 37.6989L54.1251 37.8963L53.9276 38.0935L53.7301 38.4884L53.5329 38.6857L53.3355 39.0805L53.138 39.2778L52.9408 39.4753L52.7433 39.8699L52.5459 40.0674L52.3484 40.462L52.1512 40.6595L51.9537 41.0541L51.7565 41.2516L51.5591 41.6463L51.3616 41.8438L51.1644 42.2384L50.967 42.4359L50.7695 42.8305L50.5723 43.2252L50.3748 43.2252L50.1778 42.8305L49.9801 42.4359L49.7827 42.2384L49.5855 41.8438L49.388 41.6463L49.1906 41.2516L48.9933 41.0541L48.7959 40.6595L48.5984 40.462L48.4012 40.0674L48.2037 39.8699L48.0064 39.4753L47.8091 39.2778L47.6116 39.0805L47.4142 38.6857L47.217 38.4884L47.0195 38.0935L46.8221 37.8963L46.6248 37.6989L46.4274 37.3041L46.2299 37.1067L46.0327 36.9093L45.8352 36.712L45.6381 36.3174L45.4406 36.1199L45.2431 35.9225L45.0457 35.5278L44.8485 35.3303L44.651 35.1329L44.4535 34.9356L44.2563 34.5408L44.0589 34.3435L43.8614 34.1463L43.6642 33.9484L43.4667 33.7514L43.269 33.3565L43.0721 33.1593L42.8746 32.9618L42.6771 32.7644L42.48 32.5672L42.2825 32.3697L42.085 32.1722L41.8879 31.975L41.6904 31.5801L41.4929 31.3829L41.2957 31.1854L41.098 30.988L40.9008 30.7908L40.7036 30.5933L40.5061 30.3958L40.3086 30.1987L40.1115 30.0012L39.914 29.8037L39.7165 29.6063L39.5194 29.4091L39.3219 29.2116L39.1244 29.0144L38.9274 28.8169L38.7298 28.6195L38.5323 28.4223L38.335 28.2248L38.1376 28.0273L37.9401 27.8302L37.743 27.6327L37.5455 27.4352L37.348 27.238L36.9534 27.0406L36.7559 26.8431L36.5586 26.6459L36.3613 26.4484L36.1638 26.251L35.9666 26.0538L35.5717 25.8563L35.3744 25.6588L35.177 25.4617L34.9795 25.2642L34.7823 25.0669L34.3874 24.8695L34.1902 24.6721L33.9927 24.4746L33.7953 24.2774L33.4006 24.0799L33.2032 23.8825L33.0059 23.6852L32.611 23.4878L32.4138 23.2903L32.2163 23.0931L31.8216 22.8959L31.6243 22.698L31.2295 22.501L31.0321 22.3036L30.6374 22.1061L30.4399 21.9088L30.0453 21.7114L29.8476 21.514L29.4532 21.3168L29.0583 21.1193L28.861 20.9218L28.4662 20.7246L28.0714 20.5269L27.874 20.3297L27.4793 20.1325L27.0847 19.9351L26.8872 19.7376L26.4925 19.5404L26.0976 19.3429L25.7029 19.1455L25.3083 18.9482L24.9134 18.7508L24.5187 18.5533L24.124 18.3559L23.9266 18.1587L23.5319 17.9612L22.9398 17.764L22.5448 17.5665L22.1502 17.3691L21.7555 17.1718L21.3606 16.9744L20.7682 16.777L20.3738 16.5797L19.9792 16.3822L19.387 16.1849L18.9921 15.9876L18.4 15.7901L17.8078 15.5927L17.2157 15.3955L16.6236 15.198L16.2289 15.0006L15.4393 14.8033L14.8472 14.6059L14.0578 14.4084L13.4657 14.2112L12.6762 14.0137L11.6893 13.8166L10.7024 13.6191L9.51784 13.4216L8.13662 13.2242L6.16273 13.027L2.01791 13.027L0.43897 13.2242Z" fill="#27567D"/>
<path fill-rule="evenodd" clip-rule="evenodd" d="M55.5061 41.4489L55.3088 41.6462L55.1114 42.0408L54.914 42.2383L54.7167 42.6329L54.519 42.8304L54.3218 43.2251L54.1246 43.4225L53.9271 43.8172L53.7297 44.2121L53.5324 44.4093L53.335 44.8043L53.1376 46.3832L52.9403 47.9621L52.7428 49.1463L52.5455 50.1334L52.348 50.9227L52.1508 51.7123L51.9533 52.3044L51.7561 53.094L51.5586 53.6861L51.3612 54.278L51.164 54.6729L50.9665 55.265L50.7691 55.6597L50.7691 56.2519L50.3744 56.2519L50.3744 55.6597L50.1774 55.265L49.9797 54.6729L49.7822 54.278L49.5851 53.6861L49.3876 53.094L49.1901 52.3044L48.9929 51.7123L48.7955 50.9227L48.598 50.1334L48.4008 49.1463L48.2033 47.9621L48.0059 46.5806L47.8087 45.1987L47.6112 44.8043L47.4137 44.4093L47.2165 44.2121L47.0191 43.8172L46.8216 43.4225L46.6244 43.2251L46.427 42.8304L46.2295 42.6329L46.0323 42.2383L45.8348 42.0408L45.6376 41.6462L45.4401 41.4489L45.2427 41.4489L45.2427 45.1987L45.4401 47.1728L45.6376 48.7517L45.8348 49.9359L46.0323 50.9227L46.2295 51.9098L46.427 52.6991L46.6244 53.4886L46.8216 54.278L47.0191 55.0676L47.2165 55.6597L47.4137 56.4491L47.6112 57.0414L47.8087 57.6336L48.0059 58.2257L48.2033 58.8181L48.4008 59.41L48.598 59.8046L48.7955 60.3968L48.9929 60.9891L49.1901 61.3837L49.3876 61.9759L49.5851 62.3706L49.7822 62.7652L49.9797 63.3574L50.1774 63.7523L50.3743 64.147L50.7691 64.147L50.9665 63.7523L51.164 63.3574L51.3612 62.7652L51.5586 62.3706L51.7561 61.7785L51.9533 61.3837L52.1508 60.7916L52.348 60.3968L52.5455 59.8046L52.7428 59.2125L52.9403 58.8181L53.1376 58.2257L53.335 57.6336L53.5324 57.0414L53.7297 56.2519L53.9271 55.6597L54.1246 54.8704L54.3218 54.278L54.519 53.4886L54.7167 52.6991L54.914 51.7123L55.1114 50.7255L55.3088 49.7387L55.5061 48.5542L55.7035 47.1728L55.9009 44.8043L55.9009 41.2515L55.7035 41.2515L55.5061 41.4489Z" fill="#27567D"/>
<path fill-rule="evenodd" clip-rule="evenodd" d="M91.6263 34.7382L91.4291 34.9356L91.2317 35.3303L91.0342 35.5277L90.837 35.7249L90.6398 35.9224L90.4419 36.1199L90.2448 36.3173L90.0474 36.5145L89.85 36.712L89.6528 36.9092L89.6528 38.2909L89.6528 45.1987L89.4553 46.9754L89.2578 48.1596L89.0606 49.3439L88.8631 50.3306L88.6657 51.1203L88.4688 51.9098L88.2708 52.502L88.0736 53.2913L87.8763 53.8834L87.6789 54.4755L87.4815 55.0677L87.2842 55.4626L87.0868 56.0547L86.8893 56.4492L86.6921 57.0415L86.4947 57.4361L86.2972 57.8311L86.0997 58.2258L85.9025 58.8182L85.7051 59.2126L85.5078 59.6075L85.3104 59.8047L85.113 60.1996L84.9157 60.5942L84.7183 60.9892L84.5208 61.3838L84.3236 61.5811L84.1261 61.976L83.9287 62.3706L83.7315 62.5681L83.534 62.9628L83.3366 63.1602L83.1393 63.5549L82.9419 63.7523L82.7444 64.147L82.5472 64.3445L82.3497 64.7392L82.1523 64.9366L81.9551 65.1338L81.7576 65.5285L81.5604 65.726L81.363 65.9234L81.1655 66.1208L80.9681 66.5156L80.7708 66.713L80.5734 66.9102L80.3759 67.1077L80.1787 67.3051L79.9812 67.5023L79.7838 67.8975L79.5866 68.0945L79.3893 68.2919L79.1914 68.4894L78.9945 68.6866L78.797 68.8841L78.5995 69.0815L78.4023 69.2787L78.2049 69.4762L78.0074 69.6736L77.8102 69.8706L77.6127 70.0685L77.4153 70.2658L77.2183 70.463L77.0204 70.6604L76.626 70.8579L76.4285 71.0551L76.231 71.2526L76.0338 71.45L75.8364 71.6472L75.6389 71.8447L75.2442 72.0422L75.0468 72.2395L74.8493 72.4368L74.6521 72.6343L74.2574 72.8315L74.06 73.0289L73.8625 73.2264L73.4679 73.4236L73.2704 73.6211L72.8757 73.8185L72.6783 74.0157L72.2836 74.2132L72.0861 74.4107L71.6915 74.6079L71.494 74.8053L71.0994 75.0028L70.7046 75.1999L70.5073 75.3974L70.1126 75.5949L69.7177 75.7921L69.323 75.9896L68.9283 76.187L68.5334 76.3843L68.139 76.5817L67.744 76.7789L67.3492 76.9763L66.9545 77.1738L66.5598 77.3713L66.1649 77.5685L65.5728 77.7659L65.1781 77.9634L64.5859 78.1606L63.9938 78.358L63.4017 78.5555L63.007 78.7527L62.2174 78.95L61.6253 79.1479L60.8357 79.3449L60.2436 79.5423L59.2568 79.7398L58.27 79.937L57.283 80.1344L55.9015 80.3319L54.1252 80.5292L47.8092 80.5292L45.8353 80.3319L44.4536 80.1344L43.4668 79.937L42.4801 79.7398L41.6905 79.5423L40.9009 79.3449L40.1115 79.1479L39.5195 78.95L38.9275 78.7527L38.3351 78.5555L37.7431 78.358L37.1509 78.1606L36.756 77.9634L36.1639 77.7659L35.7692 77.5685L35.1771 77.3713L34.7824 77.1738L34.3875 76.9763L33.9928 76.7789L33.5981 76.5817L33.2033 76.3843L32.8086 76.187L32.4139 75.9896L32.0187 75.7921L31.8217 75.5949L31.4269 75.3974L31.0322 75.1999L30.6375 75.0028L30.44 74.8053L30.0454 74.6078L29.8477 74.4107L29.4533 74.2132L29.2558 74.0157L28.8611 73.8185L28.6636 73.6211L28.269 73.4236L28.0715 73.2264L27.6771 73.0289L27.4794 72.8315L27.282 72.6343L26.8873 72.4368L26.6898 72.2395L26.4926 72.0422L26.2952 71.8447L26.0977 71.6472L25.703 71.45L25.5056 71.2526L25.3084 71.0551L25.1109 70.8579L24.9134 70.6604L24.7163 70.463L24.5188 70.2658L24.3213 70.0685L23.9267 69.8706L23.7292 69.6736L23.532 69.4762L23.3345 69.2787L23.1371 69.0815L22.9399 68.8841L22.7424 68.4893L22.5449 68.2919L22.3478 68.0945L22.1503 67.8975L21.9528 67.6996L21.7556 67.5023L21.5582 67.3051L21.3607 67.1077L21.1635 66.9102L20.966 66.5156L20.7683 66.3181L20.5714 66.1208L20.3739 65.9234L20.1764 65.5285L19.9793 65.3313L19.7818 65.1338L19.5843 64.7392L19.3871 64.5417L19.1897 64.3445L18.9922 63.9496L18.795 63.7523L18.5978 63.3575L18.4001 63.1602L18.2029 62.7653L18.0054 62.5681L17.8079 62.1732L17.6107 61.976L17.4133 61.5811L17.2158 61.1864L17.0186 60.7917L16.8212 60.5942L16.6237 60.1996L16.4267 59.8047L16.229 59.41L16.0316 59.0153L15.8343 58.6202L15.6369 58.2257L15.4394 57.6336L15.2422 57.239L15.0448 56.8441L14.8473 56.4492L14.6501 55.8572L14.4526 55.2651L14.2552 54.8705L14.0579 54.2781L13.8606 53.6862L13.6631 53.0941L13.4658 52.3045L13.2684 51.7124L13.071 50.9228L12.8737 49.936L12.6763 48.9492L12.4788 47.7649L12.2816 46.3832L12.0842 44.4094L12.0842 39.2777L12.0842 37.6988L11.8867 37.5013L11.6894 37.3041L11.492 37.1067L11.2946 36.9092L11.0973 36.712L10.8999 36.5145L10.7025 36.3173L10.5052 36.1199L10.3077 35.9224L10.1103 35.7249L9.91312 35.5277L9.71563 35.3303L9.51794 35.3303L9.32092 36.5145L9.12354 38.2909L9.12354 45.1987L9.32092 47.1728L9.51794 48.5543L9.71563 49.5413L9.91311 50.5281L10.1103 51.5149L10.3077 52.3045L10.5052 53.0941L10.7025 53.6862L10.8999 54.2781L11.0973 54.8705L11.2946 55.4626L11.492 56.0547L11.6894 56.6471L11.8867 57.0415L12.0841 57.6336L12.2816 58.0283L12.4788 58.6202L12.6763 59.0153L12.8737 59.41L13.071 59.8047L13.2684 60.1996L13.4658 60.5942L13.6631 60.9892L13.8606 61.3838L14.0579 61.7785L14.2552 62.1732L14.4526 62.3706L14.6501 62.7653L14.8473 63.1602L15.0448 63.5549L15.2422 63.7523L15.4394 64.147L15.6369 64.3445L15.8343 64.7392L16.0316 64.9366L16.229 65.3313L16.4267 65.5285L16.6237 65.9234L16.8212 66.1208L17.0186 66.5156L17.2158 66.713L17.4133 66.9102L17.6107 67.3051L17.8079 67.5023L18.0054 67.6996L18.2029 67.8975L18.4001 68.2919L18.5978 68.4893L18.795 68.6866L18.9922 68.8841L19.1897 69.0815L19.3871 69.2787L19.5843 69.6736L19.7818 69.8706L19.9793 70.0685L20.1764 70.2658L20.3739 70.463L20.5714 70.6604L20.7683 70.8579L20.966 71.0551L21.1635 71.2526L21.3607 71.45L21.5582 71.6472L21.7556 71.8447L21.9528 72.0422L22.1503 72.2395L22.3478 72.4368L22.5449 72.6343L22.7424 72.8315L22.9399 73.0289L23.1371 73.2264L23.532 73.4236L23.7292 73.6211L23.9267 73.8185L24.1241 74.0157L24.3213 74.2132L24.7163 74.4107L24.9134 74.6078L25.1109 74.8053L25.3084 75.0028L25.703 75.1999L25.9005 75.3974L26.0977 75.5949L26.4926 75.7921L26.6898 75.9896L27.0848 76.187L27.282 76.3843L27.4794 76.5817L27.8741 76.7789L28.269 76.9763L28.4662 77.1738L28.8611 77.3713L29.0584 77.5685L29.4533 77.7659L29.8477 77.9634L30.0454 78.1606L30.44 78.358L30.8348 78.5555L31.2296 78.7527L31.6243 78.95L32.0187 79.1479L32.4139 79.3449L32.8086 79.5423L33.2033 79.7398L33.5981 79.937L33.9928 80.1344L34.3875 80.3319L34.9796 80.5291L35.3745 80.7266L35.9667 80.924L36.5587 81.1213L37.1509 81.319L37.5456 81.5161L38.1377 81.7134L38.9275 81.9108L39.5195 82.1083L40.3087 82.3055L41.0981 82.503L41.888 82.7004L42.8747 82.8977L44.059 83.0951L45.4407 83.2925L47.2171 83.49L54.5196 83.49L56.2962 83.2925L57.6779 83.0951L58.8622 82.8977L59.8489 82.7004L60.6385 82.503L61.6253 82.3055L62.2174 82.1083L63.007 81.9108L63.5989 81.7134L64.1913 81.5161L64.7834 81.319L65.3755 81.1213L65.7699 80.924L66.3623 80.7266L66.757 80.5292L67.3492 80.3319L67.744 80.1344L68.139 79.937L68.5334 79.7398L69.1255 79.5423L69.5204 79.3449L69.9151 79.1479L70.31 78.95L70.7046 78.7527L70.9019 78.5555L71.2968 78.358L71.6915 78.1606L72.0861 77.9634L72.2836 77.7659L72.6783 77.5685L73.0732 77.3713L73.2704 77.1738L73.6654 76.9763L73.8625 76.7789L74.2574 76.5817L74.4546 76.3843L74.8493 76.187L75.0468 75.9896L75.4417 75.7921L75.6389 75.5949L75.8364 75.3974L76.231 75.1999L76.4285 75.0028L76.626 74.8053L76.8231 74.6079L77.2183 74.4107L77.4153 74.2132L77.6127 74.0157L77.8102 73.8185L78.2049 73.6211L78.4023 73.4236L78.5995 73.2264L78.797 73.0289L78.9945 72.8315L79.1914 72.6343L79.3893 72.4368L79.5866 72.2395L79.7838 72.0422L79.9812 71.8447L80.1787 71.6472L80.5734 71.45L80.7708 71.0551L80.9681 70.8579L81.1655 70.6604L81.363 70.463L81.5604 70.2658L81.7576 70.0685L81.9551 69.8706L82.1523 69.6736L82.3497 69.4762L82.5472 69.2787L82.7444 69.0815L82.9419 68.6866L83.1393 68.4894L83.3366 68.2919L83.534 68.0945L83.7315 67.8975L83.9287 67.5023L84.1261 67.3051L84.3236 67.1077L84.5208 66.713L84.7183 66.5156L84.9157 66.3181L85.113 65.9234L85.3104 65.726L85.5078 65.3313L85.7051 65.1338L85.9025 64.7392L86.0997 64.5417L86.2972 64.147L86.4947 63.9496L86.6921 63.5549L86.8893 63.3575L87.0868 62.9628L87.2842 62.5681L87.4815 62.1732L87.6789 61.976L87.8763 61.5811L88.0736 61.1864L88.2708 60.7917L88.4688 60.3969L88.6657 60.0021L88.8631 59.6075L89.0606 59.2126L89.2578 58.6202L89.4553 58.2258L89.6528 57.8311L89.85 57.239L90.0474 56.8441L90.2448 56.2519L90.4419 55.6598L90.6398 55.0677L90.837 54.4755L91.0342 53.8834L91.2317 53.2913L91.4291 52.502L91.6263 51.7124L91.8238 50.9228L92.0213 49.936L92.2185 48.9492L92.4159 47.5677L92.6134 45.9885L92.8108 42.4358L92.8108 41.054L92.6134 37.5013L92.4159 35.9224L92.2185 34.7382L92.0213 34.5407L91.8238 34.5407L91.6263 34.7382Z" fill="url(#paint1_linear_78_18)"/>
<path fill-rule="evenodd" clip-rule="evenodd" d="M20.9673 98.4895L24.5472 98.4895L24.5472 90.7921L20.9673 90.7921L20.9673 98.4895Z" fill="#234869"/>
<path fill-rule="evenodd" clip-rule="evenodd" d="M67.5039 98.4895L81.8232 98.4895L82.0787 97.503L82.0787 97.1083L71.0839 97.1083L71.0839 95.3316L80.2887 95.3316L80.5445 94.937L80.5445 94.1474L71.0839 94.1474L71.0839 92.1735L80.8003 92.1735L80.8003 91.7791L80.5445 90.9893L80.2887 90.7921L67.5039 90.7921L67.5039 98.4895Z" fill="#234869"/>
<path fill-rule="evenodd" clip-rule="evenodd" d="M51.9061 95.5291L52.1617 95.1345L52.4174 94.7395L52.6732 94.3449L52.9287 93.9502L53.1846 93.5553L53.4403 93.1606L53.6958 92.7659L53.9516 92.371L53.9526 91.9537L55.997 92.1735L56.2528 92.5685L56.5085 92.9631L56.7641 93.3581L57.0199 93.7527L57.2757 94.1474L57.5311 94.3449L57.7869 94.7395L58.0427 95.1345L58.2982 95.5291L51.9061 95.5291ZM51.1391 90.9893L50.8833 91.3842L50.6274 91.7791L50.3719 91.9764L50.1162 92.371L49.8606 92.7659L49.6048 93.1606L49.349 93.5553L49.0933 93.9502L48.8378 94.1474L48.5819 94.5423L48.3261 94.937L48.0707 95.3316L47.8149 95.7266L47.5591 96.1212L47.3036 96.3185L47.0481 96.7133L46.7917 97.1083L46.5364 97.503L46.2806 97.8976L46.0249 98.2925L46.0249 98.4895L49.8606 98.4895L50.1162 98.0951L50.3719 97.7004L50.6274 97.3055L50.8833 97.1083L59.3213 97.1083L59.577 97.503L59.8325 97.8976L60.0884 98.2925L60.3442 98.4895L64.1796 98.4895L64.1796 98.2925L63.9238 97.8976L63.668 97.7004L63.4126 97.3055L63.1567 96.9108L62.9009 96.5159L62.6454 96.1212L62.3896 95.7266L62.1338 95.3316L61.8783 95.1345L61.6228 94.7395L61.3664 94.3449L61.1113 93.9502L60.8554 93.5553L60.5996 93.1606L60.3442 92.9631L60.0884 92.5685L59.8325 92.1735L59.577 91.7791L59.3213 91.3842L59.0655 90.9893L58.8102 90.7921L51.3945 90.7921L51.1391 90.9893Z" fill="#234869"/>
<path fill-rule="evenodd" clip-rule="evenodd" d="M2.81255 90.9893L2.55674 91.1868L2.55674 94.937L2.81255 95.1345L3.32409 95.3316L13.0405 95.3316L13.0405 97.1083L1.20753e-07 97.1083L5.1744e-08 97.8976L0.255164 98.4895L15.3418 98.4895L16.1089 98.2925L16.3644 98.0951L16.6202 97.8976L16.6202 94.937L16.3644 94.5423L16.1089 94.3449L15.8531 94.1474L5.88093 94.1474L5.88093 92.1735L16.3644 92.1735L16.3644 91.5812L16.1089 90.9893L15.8531 90.7921L3.32409 90.7921L2.81255 90.9893Z" fill="#234869"/>
<path fill-rule="evenodd" clip-rule="evenodd" d="M27.8706 91.1868L28.1264 91.5812L28.3818 91.9764L28.6377 92.1735L28.8935 92.5685L29.1489 92.9631L29.4045 93.3581L29.6606 93.7527L29.9161 94.1474L30.1718 94.5423L30.4276 94.7395L30.6832 95.1345L30.939 95.5291L31.1948 95.9238L31.4502 96.3185L31.706 96.7133L31.9619 96.9108L32.217 97.3055L32.4734 97.7004L32.7289 98.0951L32.9845 98.4895L39.8883 98.4895L40.1441 98.0951L40.3998 97.8976L40.6553 97.503L40.9112 97.1083L41.1666 96.7133L41.4224 96.3185L41.6782 95.9238L41.934 95.5291L42.1895 95.3316L42.4453 94.937L42.7011 94.5423L42.9567 94.1474L43.2125 93.7527L43.4682 93.3581L43.7237 92.9631L43.9792 92.5685L44.2356 92.371L44.4908 91.9764L44.7466 91.5812L45.0024 91.1868L45.0024 90.7921L41.4224 90.7921L41.1666 90.9893L40.9112 91.3842L40.6553 91.7791L40.3998 92.1735L40.1441 92.5685L39.8883 92.9631L39.6327 93.3581L39.3769 93.7527L39.1212 94.1474L38.8657 94.5423L38.6098 94.937L38.354 95.3316L38.0986 95.7266L37.8428 96.1212L37.587 96.5159L37.3314 96.9108L35.5415 97.1083L35.5415 96.7133L35.2861 96.3185L35.0302 95.9238L34.7744 95.5291L34.5186 95.3316L34.2631 94.937L34.0073 94.5423L33.7515 94.1474L33.496 93.7527L33.2402 93.3581L32.9845 92.9631L32.7289 92.5685L32.4734 92.1735L32.217 91.7791L31.9619 91.3842L31.706 90.9893L31.4502 90.7921L27.8706 90.7921L27.8706 91.1868Z" fill="#234869"/>
<path fill-rule="evenodd" clip-rule="evenodd" d="M83.8685 91.3842L84.124 91.7791L84.3798 91.9764L84.6355 92.371L84.8911 92.7659L85.1469 93.1606L85.4027 93.5553L85.6581 93.9502L85.914 94.3449L86.1698 94.5423L86.4252 94.937L86.681 95.3316L86.9368 95.7266L87.1924 96.1212L87.4482 96.5159L87.7036 96.9108L87.9594 97.1083L88.2153 97.503L88.4711 97.8976L88.7265 98.2925L88.9823 98.4895L95.6303 98.4895L95.8861 98.2925L96.142 98.0951L96.3978 97.7004L96.6532 97.3055L96.909 96.9108L97.1645 96.5159L97.4204 96.1212L97.6761 95.7266L97.9316 95.5291L98.1874 95.1345L98.4433 94.7395L98.6987 94.3449L98.9545 93.9502L99.2103 93.5553L99.4658 93.1606L99.7216 92.7659L99.9774 92.5685L100.233 92.1735L100.489 91.7791L100.744 91.3842L101 90.9893L101 90.7921L97.1645 90.7921L96.909 91.1868L96.6532 91.5812L96.3978 91.9764L96.142 92.371L95.8861 92.7659L95.6303 93.1606L95.3749 93.5553L95.1191 93.9502L94.8632 94.3449L94.6077 94.7395L94.352 95.1345L94.0962 95.5291L93.8407 95.9238L93.5852 96.3185L93.3291 96.7133L93.3274 97.1318L91.5395 96.9108L91.2838 96.5159L91.0279 96.1212L90.7727 95.7266L90.5163 95.3316L90.2609 95.1345L90.0054 94.7395L89.7495 94.3449L89.4937 93.9502L89.2383 93.5553L88.9825 93.1606L88.7266 92.7659L88.4712 92.371L88.2154 91.9764L87.9596 91.5812L87.7038 91.1868L87.4483 90.7921L83.6128 90.7921L83.6128 90.9893L83.8685 91.3842Z" fill="#234869"/>
<defs>
<linearGradient id="paint0_linear_78_18" x1="18.5897" y1="16.3779" x2="81.3853" y2="16.3779" gradientUnits="userSpaceOnUse">
<stop stop-color="#27567D"/>
<stop offset="0.49" stop-color="#63A1CD"/>
<stop offset="1" stop-color="#27567D"/>
</linearGradient>
<linearGradient id="paint1_linear_78_18" x1="91.4123" y1="34.5288" x2="9.0753" y2="35.8461" gradientUnits="userSpaceOnUse">
<stop stop-color="#27567D"/>
<stop offset="0.505546" stop-color="#63A1CD"/>
<stop offset="1" stop-color="#27567D"/>
</linearGradient>
</defs>
</svg>
